<?xml version="1.0" encoding="utf-8"?>
<!-- Generator: Adobe Illustrator 27.5.0, SVG Export Plug-In . SVG Version: 6.00 Build 0)  -->
<svg version="1.1" xmlns="http://www.w3.org/2000/svg" xmlns:xlink="http://www.w3.org/1999/xlink" x="0px" y="0px"
	 viewBox="0 0 750 500" style="enable-background:new 0 0 750 500;" xml:space="preserve">
<g id="BACKGROUND">
	<rect width="750" height="500"/>
</g>
<g id="OBJECTS">
	<g>
		<defs>
			<rect id="SVGID_1_" width="750" height="500"/>
		</defs>
		<clipPath id="SVGID_00000056408385051476188320000015939676800387873928_">
			<use xlink:href="#SVGID_1_"  style="overflow:visible;"/>
		</clipPath>
		<g style="clip-path:url(#SVGID_00000056408385051476188320000015939676800387873928_);">
			<g style="opacity:0.1;">
				<path style="fill:none;stroke:#FFFFFF;stroke-linecap:round;stroke-linejoin:round;stroke-miterlimit:10;" d="M57.268,510.809
					c0,0,11.059-111.697,61.336-181.311c0,0-107.32,4.5-187.997,81.205"/>
				<path style="fill:none;stroke:#FFFFFF;stroke-linecap:round;stroke-linejoin:round;stroke-miterlimit:10;" d="M27.718,145.891
					c67.482,67.835,90.886,183.607,90.886,183.607s78.312-78.194,82.554-166.492"/>
				<path style="fill:none;stroke:#FFFFFF;stroke-linecap:round;stroke-linejoin:round;stroke-miterlimit:10;" d="M118.604,329.498
					c0,0,101.557,122.269,125.647,183.381"/>
				<path style="fill:none;stroke:#FFFFFF;stroke-linecap:round;stroke-linejoin:round;stroke-miterlimit:10;" d="M176.929,247.29
					c-29.293,16.804-84.141,1.644-84.141,1.644C76.96,324.096,23.53,352.104,23.53,352.104c43.683,1.409,53.608,65.24,53.608,65.24
					c39.875-41.235,97.878-15.534,97.878-15.534S145.656,329.065,176.929,247.29z"/>
				<path style="fill:none;stroke:#FFFFFF;stroke-linecap:round;stroke-linejoin:round;stroke-miterlimit:10;" d="M150.689,369.707
					c0,0-36.196-15.903-58.78,7.144c0,0-0.355-34.487-26.598-38.371c0,0,40.638-10.221,38.665-60.182
					c0,0,26.864,17.296,49.824,7.731C153.799,286.029,127.21,339.884,150.689,369.707z"/>
				<path style="fill:none;stroke:#FFFFFF;stroke-linecap:round;stroke-linejoin:round;stroke-miterlimit:10;" d="M132.299,346.367
					c0,0-12.353-7.379-25.211,0.796c0,0,0.573-15.868-10.11-15.224c0,0,15.197-7.188,15.416-26.956c0,0,14.471,12.186,24.563,3.609
					C136.957,308.591,128.025,330.185,132.299,346.367z"/>
				<path style="fill:none;stroke:#FFFFFF;stroke-linecap:round;stroke-linejoin:round;stroke-miterlimit:10;" d="M122.972,334.819
					c0,0-4.302-1.561-8.5,0.61c0,0,1.169-4.622-4.702-5.189c0,0,7.105-3.907,6.407-11.165c0,0,7.236,4.499,11.222,0.884
					C127.398,319.959,121.659,328.388,122.972,334.819z"/>
				<path style="fill:none;stroke:#FFFFFF;stroke-linecap:round;stroke-linejoin:round;stroke-miterlimit:10;" d="M65.657,195.193
					c0,0-0.333,117-92.144,182.249c62.995,0.872,89.41,96.895,89.41,96.895c52.879-68.763,153.631-12.609,153.631-12.609
					s-47.556-151.85-20.783-263.727C195.771,198.001,134.221,243.614,65.657,195.193"/>
				<path style="fill:none;stroke:#FFFFFF;stroke-linecap:round;stroke-linejoin:round;stroke-miterlimit:10;" d="M227.688,479.976
					c0,0-19.023-54.644,15.697-134.476c34.72-79.832,11.168-120.944,11.168-120.944"/>
			</g>
			<g style="opacity:0.1;">
				<path style="fill:none;stroke:#FFFFFF;stroke-linecap:round;stroke-linejoin:round;stroke-miterlimit:10;" d="M530.823-4.687
					H354.428c0,0,117.679,45.875,201.949,145.603"/>
				<path style="fill:none;stroke:#FFFFFF;stroke-linecap:round;stroke-linejoin:round;stroke-miterlimit:10;" d="M209.324-4.687
					h145.104c0,0-72.552,39.891-136.129,115.186"/>
				<path style="fill:none;stroke:#FFFFFF;stroke-linecap:round;stroke-linejoin:round;stroke-miterlimit:10;" d="M428.726,167.843
					c0,0-30.417-124.411-74.297-172.53c0,0-50.363,77.289-72.552,167.543"/>
				<path style="fill:none;stroke:#FFFFFF;stroke-linecap:round;stroke-linejoin:round;stroke-miterlimit:10;" d="M515.988-4.687
					c-33.908,57.842,20.749,123.886,20.749,123.886s-80.751-38.369-117.069,16.107c0,0-77.02-38.367-130.717,2.071
					c0,0-1.495-55.51-52.778-46.929c0,0,21.021-74.691-4.909-95.136"/>
				<path style="fill:none;stroke:#FFFFFF;stroke-linecap:round;stroke-linejoin:round;stroke-miterlimit:10;" d="M459.018-4.687
					c0,0-13.288,28.453,3.267,60.476c0,0-44.915-2.798-58.684,31.628c0,0-52.525-32.514-94.854-3.906c0,0-6.861-36.09-33.57-30.605
					c0,0,23.718-33.035,0-57.593"/>
				<path style="fill:none;stroke:#FFFFFF;stroke-linecap:round;stroke-linejoin:round;stroke-miterlimit:10;" d="M422.991-4.687
					c-10.222,16.705,4.134,37.409,4.134,37.409S397.91,30.486,387.762,49.3c0,0-25.656-24.716-61.408-3.823
					c0,0,6.602-22.791-17.317-19.935c0,0,14.476-18.51-4.223-30.228"/>
				<path style="fill:none;stroke:#FFFFFF;stroke-linecap:round;stroke-linejoin:round;stroke-miterlimit:10;" d="M395.064-4.001
					c-5.987,8.601,0,18.538,0,18.538s-16.379-3.571-20.435,9.327c0,0-15.036-10.927-35.372-2.85c0,0-0.788-10.296-11.445-8.898
					c0,0,4.177-12.065-4.673-16.803"/>
				<path style="fill:none;stroke:#FFFFFF;stroke-linecap:round;stroke-linejoin:round;stroke-miterlimit:10;" d="M374.312-4.687
					c-4.394,3.709-0.527,8.562-0.527,8.562s-6.492-0.924-8.966,4.529c0,0-12.208-3.583-18.373,0c0,0,0.286-5.913-6.306-4.437
					c0,0,2.384-6.627-3.693-8.653"/>
				<path style="fill:none;stroke:#FFFFFF;stroke-linecap:round;stroke-linejoin:round;stroke-miterlimit:10;" d="M536.737,119.199
					c0,0-34.711-37.621-44.061-80.753"/>
				<path style="fill:none;stroke:#FFFFFF;stroke-linecap:round;stroke-linejoin:round;stroke-miterlimit:10;" d="M419.668,135.306
					c0,0-9.267-5.983-13.63-22.314s-15.707-16.954-15.707-16.954"/>
				<path style="fill:none;stroke:#FFFFFF;stroke-linecap:round;stroke-linejoin:round;stroke-miterlimit:10;" d="M236.173,90.449
					c0,0,18.528-20.954,16.284-68.142"/>
			</g>
			<g style="opacity:0.1;">
				<polyline style="fill:none;stroke:#FFFFFF;stroke-linecap:round;stroke-linejoin:round;stroke-miterlimit:10;" points="
					754.882,238.421 754.882,501.107 473.497,501.107 				"/>
				<path style="fill:none;stroke:#FFFFFF;stroke-linecap:round;stroke-linejoin:round;stroke-miterlimit:10;" d="M669.853,205.495
					c14.473,99.864,85.029,295.612,85.029,295.612S655.38,345.16,497.624,259.769"/>
				<path style="fill:none;stroke:#FFFFFF;stroke-linecap:round;stroke-linejoin:round;stroke-miterlimit:10;" d="M754.882,501.107
					c0,0-118.937-79.24-321.25-111.081"/>
				<path style="fill:none;stroke:#FFFFFF;stroke-linecap:round;stroke-linejoin:round;stroke-miterlimit:10;" d="M484.598,501.107
					c0,0,31.369-78.819-26.288-106.89c0,0,72.798-28.859,64.378-120.007c0,0,99.37,22.752,150.766-47.586
					c0,0,34.029,48.342,81.428,24.461c0,0-9.498-6.965-5.156-26.504c4.342-19.539-6.242-26.323-6.242-26.323"/>
				<path style="fill:none;stroke:#FFFFFF;stroke-linecap:round;stroke-linejoin:round;stroke-miterlimit:10;" d="M754.882,289.438
					c0,0-28.147,23.764-65.272,5.731c0,0-35.979,56.155-98.062,27.745c0,0,3.996,72.759-56.18,88.389c0,0,36.296,44.576,0,89.804"/>
				<path style="fill:none;stroke:#FFFFFF;stroke-linecap:round;stroke-linejoin:round;stroke-miterlimit:10;" d="M754.882,339.913
					c0,0-21.161,21.372-51.015,5.53c0,0-14.905,38.285-58.743,25.061c0,0,12.509,53.281-44.972,60.191
					c0,0,33.208,39.475-5.895,70.411"/>
				<path style="fill:none;stroke:#FFFFFF;stroke-linecap:round;stroke-linejoin:round;stroke-miterlimit:10;" d="M754.882,387.855
					c0,0-12.639,23.149-36.17,5.785c0,0-10.673,26.639-34.832,17.121c0,0,1.374,42.251-35.454,37.714
					c0,0,24.321,26.218,2.249,52.632"/>
				<path style="fill:none;stroke:#FFFFFF;stroke-linecap:round;stroke-linejoin:round;stroke-miterlimit:10;" d="M754.882,427.656
					c0,0-7.376,11.26-24.131,3.097c0,0-6.621,14.991-22.543,8.118c0,0,2.226,24.908-21.502,26.023c0,0,13.54,19.569-3.466,36.212"/>
				<path style="fill:none;stroke:#FFFFFF;stroke-linecap:round;stroke-linejoin:round;stroke-miterlimit:10;" d="M754.882,454.069
					c0,0-6.244,6.513-16.329,0c0,0-3.982,12.66-12.009,7.687c0,0,3.067,17.165-15.053,15.051c0,0,12.816,12.721-2.381,24.299"/>
				<path style="fill:none;stroke:#FFFFFF;stroke-linecap:round;stroke-linejoin:round;stroke-miterlimit:10;" d="M754.882,470.352
					c0,0-2.774,6.228-9.98,2.3c0,0-0.769,6.754-7.154,3.946c0,0,0.387,9.685-9.331,9.047c0,0,9.278,10.578-1.034,15.463"/>
				<path style="fill:none;stroke:#FFFFFF;stroke-linecap:round;stroke-linejoin:round;stroke-miterlimit:10;" d="M640.816,366.342
					c0,0,7.606,55.527-68.607,55.39"/>
				<path style="fill:none;stroke:#FFFFFF;stroke-linecap:round;stroke-linejoin:round;stroke-miterlimit:10;" d="M568.159,420.51
					c0,0,55.267-27.284,34.338-88.585"/>
				<path style="fill:none;stroke:#FFFFFF;stroke-linecap:round;stroke-linejoin:round;stroke-miterlimit:10;" d="M532.359,501.107
					c0,0,14.111-29.851,4.523-55.54"/>
				<path style="fill:none;stroke:#FFFFFF;stroke-linecap:round;stroke-linejoin:round;stroke-miterlimit:10;" d="M482.789,501.107
					c0,0,4.251-12.392-7.282-27.77c-11.533-15.378-7.734-20.805-7.734-21.891"/>
			</g>
			<g style="opacity:0.1;">
				<polyline style="fill:none;stroke:#FFFFFF;stroke-linecap:round;stroke-linejoin:round;stroke-miterlimit:10;" points="
					751.736,295.097 687.379,80.504 751.736,122.338 				"/>
				<polyline style="fill:none;stroke:#FFFFFF;stroke-linecap:round;stroke-linejoin:round;stroke-miterlimit:10;" points="
					751.736,65.463 687.379,80.504 739.554,-4.535 				"/>
				<polyline style="fill:none;stroke:#FFFFFF;stroke-linecap:round;stroke-linejoin:round;stroke-miterlimit:10;" points="
					643.665,-4.535 687.379,80.504 549.549,-4.535 				"/>
				<path style="fill:none;stroke:#FFFFFF;stroke-linecap:round;stroke-linejoin:round;stroke-miterlimit:10;" d="M575.704,11.602
					c0,0,52.494,34.072,70.98-10.265c0,0,41.353,32.702,85.267,6.521c0,0-12.011,35.801,14.894,58.748c0,0-15.624,33.861,0,52.552
					c0,0-30.817,56.948-9.359,128.421"/>
				<path style="fill:none;stroke:#FFFFFF;stroke-linecap:round;stroke-linejoin:round;stroke-miterlimit:10;" d="M640.704,51.707
					c16.827,0.125,23.464-16.356,23.464-16.356c19.093,14.778,48.053,4.664,48.053,4.664c-4.242,21.145,16.633,30.796,16.633,30.796
					c-11.639,12.868-3.104,34.636-3.104,34.636c-21.089,19.537-15.713,50.612-15.713,50.612S682.868,92.828,640.704,51.707z"/>
				<path style="fill:none;stroke:#FFFFFF;stroke-linecap:round;stroke-linejoin:round;stroke-miterlimit:10;" d="M694.279,103.511
					c0,0-12.435-26.422-33.005-39.113c0,0,11.761,2.184,13.586-8.247c0,0,14.079,12.198,25.873,2.588c0,0-4.349,13.478,8.775,16.593
					c0,0-8.702,12.068-0.374,19.313C709.134,94.646,694.618,92.74,694.279,103.511"/>
				<path style="fill:none;stroke:#FFFFFF;stroke-linecap:round;stroke-linejoin:round;stroke-miterlimit:10;" d="M701.305,126.939
					c0,0-4.417-18.642,15.859-27.074c0,0-6.556-15.835,2.394-26.881c0,0-16.749-7.4-12.713-24.206c0,0-14.351,9.959-36.357-1.132
					c0,0-5.96,16.527-15.062,13.144c0,0,30.777,27.47,43.499,58.214"/>
			</g>
		</g>
		<g style="clip-path:url(#SVGID_00000056408385051476188320000015939676800387873928_);">
			<path style="fill:none;stroke:#FFFFFF;stroke-linecap:round;stroke-linejoin:round;stroke-miterlimit:10;" d="M630.152,519.914
				c0,0-1.011-68.492,29.245-111.673c0,0-76.045,3.974-127.38,51.841c0,0-29.036,26.931-37.396,39.436"/>
			<path style="fill:none;stroke:#FFFFFF;stroke-linecap:round;stroke-linejoin:round;stroke-miterlimit:10;" d="M580.09,296.892
				c53.437,40.753,79.307,111.349,79.307,111.349s49.532-48.751,45.529-102.844"/>
			<path style="fill:none;stroke:#FFFFFF;stroke-linecap:round;stroke-linejoin:round;stroke-miterlimit:10;" d="M659.397,408.241
				c0,0,82.026,73.684,104.037,110.815"/>
			<path style="fill:none;stroke:#FFFFFF;stroke-linecap:round;stroke-linejoin:round;stroke-miterlimit:10;" d="M694.381,357.26
				c-19.518,10.618-59.771,1.962-59.771,1.962c-5.29,46.185-41.1,63.936-41.1,63.936c31.21,0.366,43.354,39.323,43.354,39.323
				c25.108-25.692,68.445-10.621,68.445-10.621S678.621,407.669,694.381,357.26z"/>
			<path style="fill:none;stroke:#FFFFFF;stroke-linecap:round;stroke-linejoin:round;stroke-miterlimit:10;" d="M685.437,432.487
				c0,0-27.034-9.322-41.279,5.041c0,0-2.996-21.105-21.988-23.184c0,0,28.118-6.718,22.74-37.275c0,0,20.501,10.281,36.085,4.166
				C680.996,381.235,666.35,414.5,685.437,432.487z"/>
			<path style="fill:none;stroke:#FFFFFF;stroke-linecap:round;stroke-linejoin:round;stroke-miterlimit:10;" d="M670.489,418.41
				c0,0-9.381-4.376-17.885,0.774c0,0-0.854-9.719-8.409-9.204c0,0,10.247-4.572,8.831-16.674c0,0,11.271,7.294,17.774,1.93
				C670.8,395.236,666.159,408.555,670.489,418.41z"/>
			<path style="fill:none;stroke:#FFFFFF;stroke-linecap:round;stroke-linejoin:round;stroke-miterlimit:10;" d="M662.93,411.448
				c0,0-3.187-0.906-6.003,0.47c0,0,0.464-2.842-3.76-3.122c0,0,4.748-2.472,3.673-6.907c0,0,5.509,2.671,8.059,0.413
				C664.899,402.302,661.484,407.527,662.93,411.448z"/>
			<path style="fill:none;stroke:#FFFFFF;stroke-linecap:round;stroke-linejoin:round;stroke-miterlimit:10;" d="M611.021,326.638
				c0,0,9.069,71.617-51.103,112.598c44.917-0.182,71.359,58.291,71.359,58.291c32.176-42.689,108.37-9.464,108.37-9.464
				s-45.934-92.403-35.773-161.184C703.875,326.878,663.684,355.496,611.021,326.638"/>
			<path style="fill:none;stroke:#FFFFFF;stroke-linecap:round;stroke-linejoin:round;stroke-miterlimit:10;" d="M749.025,499.105
				c0,0-17.889-33.23,0.479-82.488c18.368-49.258-1.669-74.154-1.669-74.154"/>
		</g>
		<g style="clip-path:url(#SVGID_00000056408385051476188320000015939676800387873928_);">
			<path style="fill:none;stroke:#FFFFFF;stroke-linecap:round;stroke-linejoin:round;stroke-miterlimit:10;" d="M216.869,501.601
				h155.479c0,0-103.726-40.436-178.004-128.339"/>
			<path style="fill:none;stroke:#FFFFFF;stroke-linecap:round;stroke-linejoin:round;stroke-miterlimit:10;" d="M500.248,501.601
				h-127.9c0,0,63.95-35.161,119.988-101.529"/>
			<path style="fill:none;stroke:#FFFFFF;stroke-linecap:round;stroke-linejoin:round;stroke-miterlimit:10;" d="M306.86,349.528
				c0,0,26.811,109.66,65.488,152.073c0,0,44.391-68.125,63.95-147.678"/>
			<path style="fill:none;stroke:#FFFFFF;stroke-linecap:round;stroke-linejoin:round;stroke-miterlimit:10;" d="M229.944,501.601
				c29.887-50.984-18.289-109.197-18.289-109.197s71.177,33.82,103.189-14.198c0,0,67.888,33.817,115.218-1.826
				c0,0,1.318,48.928,46.52,41.364c0,0-18.528,65.835,4.327,83.856"/>
			<path style="fill:none;stroke:#FFFFFF;stroke-linecap:round;stroke-linejoin:round;stroke-miterlimit:10;" d="M280.159,501.601
				c0,0,11.712-25.08-2.879-53.305c0,0,39.59,2.466,51.726-27.878c0,0,46.297,28.659,83.607,3.443c0,0,6.047,31.811,29.59,26.977
				c0,0-20.906,29.118,0,50.764"/>
			<path style="fill:none;stroke:#FFFFFF;stroke-linecap:round;stroke-linejoin:round;stroke-miterlimit:10;" d="M311.914,501.601
				c9.01-14.724-3.643-32.974-3.643-32.974s25.751,1.971,34.695-14.612c0,0,22.614,21.786,54.127,3.37
				c0,0-5.819,20.089,15.264,17.572c0,0-12.759,16.315,3.723,26.644"/>
			<path style="fill:none;stroke:#FFFFFF;stroke-linecap:round;stroke-linejoin:round;stroke-miterlimit:10;" d="M336.53,500.996
				c5.277-7.582,0-16.34,0-16.34s14.436,3.148,18.012-8.221c0,0,13.253,9.632,31.178,2.512c0,0,0.695,9.075,10.088,7.843
				c0,0-3.682,10.635,4.119,14.81"/>
			<path style="fill:none;stroke:#FFFFFF;stroke-linecap:round;stroke-linejoin:round;stroke-miterlimit:10;" d="M354.822,501.601
				c3.873-3.269,0.465-7.546,0.465-7.546s5.723,0.815,7.903-3.992c0,0,10.76,3.158,16.195,0c0,0-0.252,5.212,5.558,3.911
				c0,0-2.101,5.842,3.255,7.627"/>
			<path style="fill:none;stroke:#FFFFFF;stroke-linecap:round;stroke-linejoin:round;stroke-miterlimit:10;" d="M211.656,392.404
				c0,0,30.595,33.16,38.836,71.178"/>
			<path style="fill:none;stroke:#FFFFFF;stroke-linecap:round;stroke-linejoin:round;stroke-miterlimit:10;" d="M314.844,378.207
				c0,0,8.168,5.274,12.014,19.668c3.846,14.394,13.845,14.944,13.845,14.944"/>
			<path style="fill:none;stroke:#FFFFFF;stroke-linecap:round;stroke-linejoin:round;stroke-miterlimit:10;" d="M476.582,417.745
				c0,0-16.331,18.469-14.353,60.063"/>
		</g>
		<g style="clip-path:url(#SVGID_00000056408385051476188320000015939676800387873928_);">
			<polyline style="fill:none;stroke:#FFFFFF;stroke-linecap:round;stroke-linejoin:round;stroke-miterlimit:10;" points="
				-3.652,258.77 -3.652,-3.915 277.732,-3.915 			"/>
			<path style="fill:none;stroke:#FFFFFF;stroke-linecap:round;stroke-linejoin:round;stroke-miterlimit:10;" d="M81.377,291.697
				C66.904,191.833-3.652-3.915-3.652-3.915S95.85,152.032,253.606,237.423"/>
			<path style="fill:none;stroke:#FFFFFF;stroke-linecap:round;stroke-linejoin:round;stroke-miterlimit:10;" d="M-3.652-3.915
				c0,0,118.937,79.24,321.25,111.081"/>
			<path style="fill:none;stroke:#FFFFFF;stroke-linecap:round;stroke-linejoin:round;stroke-miterlimit:10;" d="M266.632-3.915
				c0,0-31.368,78.819,26.288,106.89c0,0-72.799,28.859-64.378,120.007c0,0-99.369-22.752-150.766,47.586
				c0,0-34.029-48.342-81.428-24.461c0,0,9.498,6.965,5.156,26.504c-4.342,19.539,6.241,26.323,6.241,26.323"/>
			<path style="fill:none;stroke:#FFFFFF;stroke-linecap:round;stroke-linejoin:round;stroke-miterlimit:10;" d="M-3.652,207.753
				c0,0,28.147-23.763,65.272-5.731c0,0,35.979-56.155,98.062-27.745c0,0-3.996-72.759,56.18-88.389c0,0-36.296-44.576,0-89.804"/>
			<path style="fill:none;stroke:#FFFFFF;stroke-linecap:round;stroke-linejoin:round;stroke-miterlimit:10;" d="M-3.652,157.278
				c0,0,21.161-21.372,51.014-5.53c0,0,14.905-38.285,58.743-25.061c0,0-12.509-53.281,44.972-60.191
				c0,0-33.208-39.475,5.895-70.411"/>
			<path style="fill:none;stroke:#FFFFFF;stroke-linecap:round;stroke-linejoin:round;stroke-miterlimit:10;" d="M-3.652,109.336
				c0,0,12.639-23.149,36.17-5.785c0,0,10.673-26.639,34.832-17.121c0,0-1.374-42.251,35.453-37.714c0,0-24.321-26.218-2.249-52.632
				"/>
			<path style="fill:none;stroke:#FFFFFF;stroke-linecap:round;stroke-linejoin:round;stroke-miterlimit:10;" d="M-3.652,69.535
				c0,0,7.376-11.26,24.131-3.097c0,0,6.621-14.991,22.543-8.118c0,0-2.226-24.908,21.502-26.023c0,0-13.54-19.569,3.466-36.213"/>
			<path style="fill:none;stroke:#FFFFFF;stroke-linecap:round;stroke-linejoin:round;stroke-miterlimit:10;" d="M-3.652,43.122
				c0,0,6.244-6.513,16.328,0c0,0,3.982-12.66,12.009-7.687c0,0-3.067-17.165,15.053-15.051c0,0-12.816-12.721,2.381-24.3"/>
			<path style="fill:none;stroke:#FFFFFF;stroke-linecap:round;stroke-linejoin:round;stroke-miterlimit:10;" d="M-3.652,26.84
				c0,0,2.774-6.228,9.98-2.3c0,0,0.769-6.754,7.154-3.946c0,0-0.386-9.685,9.331-9.047c0,0-9.278-10.578,1.034-15.463"/>
			<path style="fill:none;stroke:#FFFFFF;stroke-linecap:round;stroke-linejoin:round;stroke-miterlimit:10;" d="M110.414,130.849
				c0,0-7.606-55.527,68.607-55.39"/>
			<path style="fill:none;stroke:#FFFFFF;stroke-linecap:round;stroke-linejoin:round;stroke-miterlimit:10;" d="M183.071,76.681
				c0,0-55.267,27.284-34.338,88.585"/>
			<path style="fill:none;stroke:#FFFFFF;stroke-linecap:round;stroke-linejoin:round;stroke-miterlimit:10;" d="M218.871-3.915
				c0,0-14.111,29.851-4.523,55.54"/>
			<path style="fill:none;stroke:#FFFFFF;stroke-linecap:round;stroke-linejoin:round;stroke-miterlimit:10;" d="M268.441-3.915
				c0,0-4.251,12.393,7.282,27.77s7.734,20.805,7.734,21.891"/>
		</g>
		<g style="clip-path:url(#SVGID_00000056408385051476188320000015939676800387873928_);">
			<polyline style="fill:none;stroke:#FFFFFF;stroke-linecap:round;stroke-linejoin:round;stroke-miterlimit:10;" points="
				-0.507,200.856 63.85,415.449 -0.507,373.615 			"/>
			<polyline style="fill:none;stroke:#FFFFFF;stroke-linecap:round;stroke-linejoin:round;stroke-miterlimit:10;" points="
				-0.507,430.49 63.85,415.449 11.675,500.488 			"/>
			<polyline style="fill:none;stroke:#FFFFFF;stroke-linecap:round;stroke-linejoin:round;stroke-miterlimit:10;" points="
				107.564,500.488 63.85,415.449 201.68,500.488 			"/>
			<path style="fill:none;stroke:#FFFFFF;stroke-linecap:round;stroke-linejoin:round;stroke-miterlimit:10;" d="M175.526,484.351
				c0,0-52.494-34.072-70.98,10.265c0,0-41.353-32.702-85.267-6.521c0,0,12.011-35.801-14.894-58.748c0,0,15.624-33.861,0-52.552
				c0,0,30.817-56.948,9.359-128.421"/>
			<path style="fill:none;stroke:#FFFFFF;stroke-linecap:round;stroke-linejoin:round;stroke-miterlimit:10;" d="M110.525,444.246
				c-16.827-0.125-23.464,16.355-23.464,16.355c-19.093-14.777-48.053-4.664-48.053-4.664c4.242-21.145-16.634-30.796-16.634-30.796
				c11.639-12.868,3.104-34.636,3.104-34.636c21.089-19.537,15.712-50.612,15.712-50.612S68.362,403.125,110.525,444.246z"/>
			<path style="fill:none;stroke:#FFFFFF;stroke-linecap:round;stroke-linejoin:round;stroke-miterlimit:10;" d="M56.95,392.442
				c0,0,12.435,26.422,33.005,39.113c0,0-11.761-2.184-13.586,8.247c0,0-14.079-12.198-25.873-2.588c0,0,4.349-13.478-8.775-16.594
				c0,0,8.702-12.068,0.374-19.313C42.096,401.307,56.612,403.213,56.95,392.442"/>
			<path style="fill:none;stroke:#FFFFFF;stroke-linecap:round;stroke-linejoin:round;stroke-miterlimit:10;" d="M49.924,369.014
				c0,0,4.417,18.642-15.858,27.074c0,0,6.556,15.835-2.394,26.881c0,0,16.749,7.4,12.713,24.206c0,0,14.351-9.959,36.357,1.132
				c0,0,5.96-16.527,15.062-13.144c0,0-30.778-27.47-43.499-58.214"/>
		</g>
		<g style="clip-path:url(#SVGID_00000056408385051476188320000015939676800387873928_);">
			<polyline style="fill:none;stroke:#FFFFFF;stroke-linecap:round;stroke-linejoin:round;stroke-miterlimit:10;" points="
				752.687,225.448 744.771,4.173 483.946,-30.321 			"/>
			<polyline style="fill:none;stroke:#FFFFFF;stroke-linecap:round;stroke-linejoin:round;stroke-miterlimit:10;" points="
				533.606,208.601 744.771,4.173 476,79.226 			"/>
			<polyline style="fill:none;stroke:#FFFFFF;stroke-linecap:round;stroke-linejoin:round;stroke-miterlimit:10;" points="
				648.095,283.342 744.771,4.173 772.047,196.348 			"/>
			<path style="fill:none;stroke:#FFFFFF;stroke-linecap:round;stroke-linejoin:round;stroke-miterlimit:10;" d="M529.138-24.344
				c15.629,47.581-16.245,93.267-16.245,93.267c61.267,25.256,54.128,107.328,54.128,107.328
				c93.177-6.39,95.379,65.785,95.379,65.785s19.294-48.216,89.833-29.292c0,0,2.507-20.7,18.838-23.276"/>
			<path style="fill:none;stroke:#FFFFFF;stroke-linecap:round;stroke-linejoin:round;stroke-miterlimit:10;" d="M574.911-18.291
				c27.34,31.311-2.74,70.661-2.74,70.661c53.291,12.212,43.532,76.753,43.532,76.753c58.322-2.53,67.857,51.809,67.857,51.809
				s21.324-24.207,67.336-5.558c0,0,5.198-10.705,17.052-7.906"/>
			<path style="fill:none;stroke:#FFFFFF;stroke-linecap:round;stroke-linejoin:round;stroke-miterlimit:10;" d="M624.438-11.741
				c18.802,30.036-5.444,51.037-5.444,51.037s31.737,9.217,36.298,51.502c0,0,36.608-3.962,50.785,25.114
				c0,0,17.339-10.445,42.593-2.766c0,0,3.26-8.243,11.028-3.811"/>
			<path style="fill:none;stroke:#FFFFFF;stroke-linecap:round;stroke-linejoin:round;stroke-miterlimit:10;" d="M662.934-6.65
				c18.93,14.183-0.393,33.785-0.393,33.785s20.329,6.765,22.537,34.827c0,0,27.118-0.111,31.966,22.28
				c0,0,13.973-9.528,30.537-1.546c0,0,2.55-4.182,7.978-2.523"/>
			<path style="fill:none;stroke:#FFFFFF;stroke-linecap:round;stroke-linejoin:round;stroke-miterlimit:10;" d="M696.396-2.225
				c9.128,8.73-0.876,20.151-0.876,20.151s17.303,2.139,15.833,18.599c0,0,12.825-5.587,19.534,7.742c0,0,5.891-7.751,15.148-4.794
				c0,0,0.966-2.97,3.306-3.113"/>
			<path style="fill:none;stroke:#FFFFFF;stroke-linecap:round;stroke-linejoin:round;stroke-miterlimit:10;" d="M718.016,0.634
				c4.932,4.298-0.128,11.046-0.128,11.046s8.861-0.712,10.659,8.201c0,0,8.667-2.48,9.271,4.375c0,0,4.177-4.821,7.592-2.259
				c0,0,0.139-1.131,1.718-1.226"/>
			<path style="fill:none;stroke:#FFFFFF;stroke-linecap:round;stroke-linejoin:round;stroke-miterlimit:10;" d="M730.246,2.252
				c2.461,2.805-0.07,5.997-0.07,5.997s4.616-0.22,5.594,4.638c0,0,3.499-1.5,5.54,1.28c0,0,0.534-1.936,3.741-2.171"/>
			<path style="fill:none;stroke:#FFFFFF;stroke-linecap:round;stroke-linejoin:round;stroke-miterlimit:10;" d="M679.124-4.509
				c8.512,8.865-0.315,27.101-0.315,27.101c16.675,3.808,19.831,26.24,19.831,26.24c19.459-0.34,25.119,16.017,25.119,16.017
				s10.174-10.977,23.076-2.967c0,0,1.048-4.318,5.51-4.343"/>
			<path style="fill:none;stroke:#FFFFFF;stroke-linecap:round;stroke-linejoin:round;stroke-miterlimit:10;" d="M749.845,145.999
				c-26.473-14.894-53.97-0.627-53.97-0.627s-15.236-37.073-56.686-38.985c0,0,0.144-46.271-39.123-61.806
				c0,0,17.321-37.543,0.691-59.454"/>
			<path style="fill:none;stroke:#FFFFFF;stroke-linecap:round;stroke-linejoin:round;stroke-miterlimit:10;" d="M750.138,145.01
				c0,0,1.484-10.314,13.561-7.477"/>
			<path style="fill:none;stroke:#FFFFFF;stroke-linecap:round;stroke-linejoin:round;stroke-miterlimit:10;" d="M567.021,176.252
				c0,0,16.342-9.131,40.667-3.451c24.325,5.681,35.837-6.003,35.837-6.003"/>
			<path style="fill:none;stroke:#FFFFFF;stroke-linecap:round;stroke-linejoin:round;stroke-miterlimit:10;" d="M512.893,68.923
				c0,0,8.041-10.634,16.223-11.804c8.181-1.171,10.091,7.577,18.807,7.815"/>
			<path style="fill:none;stroke:#FFFFFF;stroke-linecap:round;stroke-linejoin:round;stroke-miterlimit:10;" d="M572.171,52.37
				c0,0,21.317-51.193-27.83-74.704"/>
			<path style="fill:none;stroke:#FFFFFF;stroke-linecap:round;stroke-linejoin:round;stroke-miterlimit:10;" d="M578.22,165.41
				c0,0,50.51-74.652-6.049-113.039"/>
			<path style="fill:none;stroke:#FFFFFF;stroke-linecap:round;stroke-linejoin:round;stroke-miterlimit:10;" d="M639.188,106.387
				c0,0,8.261-5.107,13.617-2.464c5.356,2.643,5.051,8.878,12.964,10.739c6.262,1.472,8.165-3.496,14.833-3.769"/>
			<path style="fill:none;stroke:#FFFFFF;stroke-linecap:round;stroke-linejoin:round;stroke-miterlimit:10;" d="M635.235,34.76
				c0,0,5.472-4.762,10.902-4.19c5.43,0.572,5.631,1.593,11.346,1.359"/>
		</g>
		<g style="clip-path:url(#SVGID_00000056408385051476188320000015939676800387873928_);">
			<path style="fill:#FFFFFF;" d="M166.058,329.158c-0.008-0.007-0.017-0.014-0.027-0.019l-9.027-4.793
				c4.381,0.359,9.698-1.383,9.754-1.401c0.034-0.012,0.061-0.034,0.074-0.063l3.214-7.249c0.014-0.031,0.009-0.066-0.012-0.094
				c-1.464-1.905-2.045-5.226-2.05-5.259c-0.01-0.056-0.073-0.097-0.141-0.092c-0.07,0.005-0.122,0.053-0.12,0.11
				c0.082,2.421,0.936,4.87,1.05,5.187l-2.83,6.455c-2.799,1.171-7.451,1.276-8.901,1.279l6.804-3.51
				c0.035-0.018,0.058-0.049,0.061-0.083l0.71-8.034c0.003-0.028-0.008-0.055-0.03-0.076c-1.654-1.621-3.988-5.565-4.011-5.604
				c-0.03-0.05-0.101-0.073-0.165-0.054c-0.064,0.02-0.098,0.076-0.079,0.13c0.932,2.689,2.921,5.498,3.146,5.813l-0.522,7.108
				l-5.432,2.837c0.461-0.449,1.051-1.131,1.595-2.082c0.647-1.13,0.733-2.39,0.236-3.455c-1.095-2.346-4.026-4.327-4.903-4.327
				c-0.001,0-0.002,0-0.003,0h-0.576c-0.001,0-0.002,0-0.003,0c-0.878,0-3.81,1.981-4.904,4.327
				c-0.497,1.066-0.411,2.326,0.236,3.455c0.545,0.951,1.135,1.633,1.595,2.082l-5.432-2.837l-0.522-7.108
				c0.226-0.314,2.214-3.123,3.146-5.813c0.019-0.054-0.016-0.11-0.079-0.13c-0.064-0.019-0.136,0.004-0.165,0.054
				c-0.023,0.04-2.356,3.983-4.01,5.604c-0.022,0.021-0.033,0.049-0.03,0.076l0.71,8.034c0.003,0.034,0.026,0.065,0.061,0.083
				l6.804,3.51c-1.45-0.003-6.103-0.108-8.901-1.279l-2.83-6.455c0.114-0.318,0.968-2.767,1.05-5.187
				c0.002-0.057-0.051-0.105-0.12-0.11c-0.077-0.004-0.131,0.035-0.141,0.092c-0.006,0.033-0.585,3.353-2.05,5.259
				c-0.022,0.028-0.026,0.063-0.012,0.094l3.214,7.249c0.012,0.029,0.039,0.051,0.074,0.063c0.056,0.018,5.376,1.759,9.754,1.401
				l-9.027,4.793c-0.01,0.005-0.019,0.012-0.027,0.019c-0.072,0.066-7.141,6.747-3.438,15.38c0.023,0.054,0.093,0.083,0.161,0.067
				c0.067-0.016,0.106-0.073,0.09-0.129c-0.024-0.081-2.35-8.176,4.12-14.391c0.364-0.185,6.166-3.14,8.757-4.741l-6.777,8.607
				c-0.05,0.068-4.926,6.93,0.321,17.461c0.027,0.055,0.103,0.08,0.168,0.06c0.066-0.021,0.1-0.082,0.076-0.137
				c-0.044-0.098-4.274-9.882,1.045-17.003c3.415-4.571,5.023-6.696,5.741-7.638c-0.046,0.281-0.026,0.596,0.161,0.875
				c-0.086,0.162-0.25,0.62,0.292,1.104c0.037,0.033,0.098,0.044,0.148,0.026c0.051-0.018,0.083-0.061,0.079-0.106
				c-0.003-0.033-0.061-0.804,0.7-0.903c0.13-0.044,0.2-0.077,0.244-0.099c0.005-0.002,0.009-0.004,0.012-0.006
				c0.01,0.004,0.021,0.008,0.036,0.014c0.043,0.017,0.104,0.041,0.196,0.073c0.01,0.003,0.02,0.006,0.03,0.007
				c0.73,0.092,0.688,0.882,0.686,0.916c-0.003,0.045,0.029,0.087,0.08,0.105c0.052,0.018,0.11,0.007,0.147-0.026
				c0.542-0.483,0.378-0.942,0.292-1.104c0.187-0.279,0.207-0.594,0.161-0.874c0.718,0.942,2.325,3.066,5.74,7.637
				c5.32,7.121,1.088,16.905,1.045,17.003c-0.024,0.055,0.01,0.116,0.076,0.137c0.015,0.005,0.031,0.007,0.047,0.007
				c0.052,0,0.101-0.025,0.121-0.067c5.248-10.531,0.372-17.393,0.319-17.464l-6.775-8.604c2.592,1.601,8.394,4.556,8.757,4.741
				c6.466,6.212,4.144,14.309,4.12,14.391c-0.016,0.056,0.023,0.112,0.09,0.129c0.067,0.016,0.138-0.013,0.161-0.067
				C173.198,335.904,166.13,329.224,166.058,329.158z"/>
			
				<line style="fill:none;stroke:#FFFFFF;stroke-width:0.75;stroke-linecap:round;stroke-linejoin:round;stroke-miterlimit:10;" x1="154.16" y1="319.56" x2="154.16" y2="0"/>
		</g>
	</g>
</g>
</svg>
