<?xml version="1.0" encoding="UTF-8" standalone="no"?>
<!-- Generator: Adobe Illustrator 27.5.0, SVG Export Plug-In . SVG Version: 6.00 Build 0)  -->

<svg
   version="1.1"
   x="0px"
   y="0px"
   viewBox="0 0 750 500"
   style="enable-background:new 0 0 750 500;"
   xml:space="preserve"
   id="svg242"
   sodipodi:docname="bright-spider-web.svg"
   inkscape:version="1.1.2 (0a00cf5339, 2022-02-04)"
   xmlns:inkscape="http://www.inkscape.org/namespaces/inkscape"
   xmlns:sodipodi="http://sodipodi.sourceforge.net/DTD/sodipodi-0.dtd"
   xmlns:xlink="http://www.w3.org/1999/xlink"
   xmlns="http://www.w3.org/2000/svg"
   xmlns:svg="http://www.w3.org/2000/svg"><defs
   id="defs246">
	

	

		<defs
   id="defs6">
			<rect
   id="SVGID_1_"
   width="750"
   height="500"
   x="0"
   y="0" />
		</defs>
		<clipPath
   id="SVGID_00000056408385051476188320000015939676800387873928_">
			<use
   xlink:href="#SVGID_1_"
   style="overflow:visible"
   id="use8"
   x="0"
   y="0"
   width="100%"
   height="100%" />
		</clipPath>
		
		
		
		
		
		
		
	
			
			
			
			
		</defs><sodipodi:namedview
   id="namedview244"
   pagecolor="#ffffff"
   bordercolor="#666666"
   borderopacity="1.0"
   inkscape:pageshadow="2"
   inkscape:pageopacity="0.0"
   inkscape:pagecheckerboard="0"
   showgrid="false"
   inkscape:zoom="1.5270405"
   inkscape:cx="294.36023"
   inkscape:cy="264.89146"
   inkscape:window-width="2490"
   inkscape:window-height="1376"
   inkscape:window-x="0"
   inkscape:window-y="0"
   inkscape:window-maximized="1"
   inkscape:current-layer="svg242" />

<g
   style="opacity:1;stroke:#d0d0d0;stroke-opacity:1"
   id="g29">
				<path
   style="fill:none;stroke:#d0d0d0;stroke-linecap:round;stroke-linejoin:round;stroke-miterlimit:10;stroke-opacity:1"
   d="m 57.268,510.809 c 0,0 11.059,-111.697 61.336,-181.311 0,0 -107.32,4.5 -187.997,81.205"
   id="path11" />
				<path
   style="fill:none;stroke:#d0d0d0;stroke-linecap:round;stroke-linejoin:round;stroke-miterlimit:10;stroke-opacity:1"
   d="m 27.718,145.891 c 67.482,67.835 90.886,183.607 90.886,183.607 0,0 78.312,-78.194 82.554,-166.492"
   id="path13" />
				<path
   style="fill:none;stroke:#d0d0d0;stroke-linecap:round;stroke-linejoin:round;stroke-miterlimit:10;stroke-opacity:1"
   d="m 118.604,329.498 c 0,0 101.557,122.269 125.647,183.381"
   id="path15" />
				<path
   style="fill:none;stroke:#d0d0d0;stroke-linecap:round;stroke-linejoin:round;stroke-miterlimit:10;stroke-opacity:1"
   d="m 176.929,247.29 c -29.293,16.804 -84.141,1.644 -84.141,1.644 -15.828,75.162 -69.258,103.17 -69.258,103.17 43.683,1.409 53.608,65.24 53.608,65.24 39.875,-41.235 97.878,-15.534 97.878,-15.534 0,0 -29.36,-72.745 1.913,-154.52 z"
   id="path17" />
				<path
   style="fill:none;stroke:#d0d0d0;stroke-linecap:round;stroke-linejoin:round;stroke-miterlimit:10;stroke-opacity:1"
   d="m 150.689,369.707 c 0,0 -36.196,-15.903 -58.78,7.144 0,0 -0.355,-34.487 -26.598,-38.371 0,0 40.638,-10.221 38.665,-60.182 0,0 26.864,17.296 49.824,7.731 -0.001,0 -26.59,53.855 -3.111,83.678 z"
   id="path19" />
				<path
   style="fill:none;stroke:#d0d0d0;stroke-linecap:round;stroke-linejoin:round;stroke-miterlimit:10;stroke-opacity:1"
   d="m 132.299,346.367 c 0,0 -12.353,-7.379 -25.211,0.796 0,0 0.573,-15.868 -10.11,-15.224 0,0 15.197,-7.188 15.416,-26.956 0,0 14.471,12.186 24.563,3.609 0,-10e-4 -8.932,21.593 -4.658,37.775 z"
   id="path21" />
				<path
   style="fill:none;stroke:#d0d0d0;stroke-linecap:round;stroke-linejoin:round;stroke-miterlimit:10;stroke-opacity:1"
   d="m 122.972,334.819 c 0,0 -4.302,-1.561 -8.5,0.61 0,0 1.169,-4.622 -4.702,-5.189 0,0 7.105,-3.907 6.407,-11.165 0,0 7.236,4.499 11.222,0.884 -0.001,0 -5.74,8.429 -4.427,14.86 z"
   id="path23" />
				<path
   style="fill:none;stroke:#d0d0d0;stroke-linecap:round;stroke-linejoin:round;stroke-miterlimit:10;stroke-opacity:1"
   d="m 65.657,195.193 c 0,0 -0.333,117 -92.144,182.249 62.995,0.872 89.41,96.895 89.41,96.895 52.879,-68.763 153.631,-12.609 153.631,-12.609 0,0 -47.556,-151.85 -20.783,-263.727 0,0 -61.55,45.613 -130.114,-2.808"
   id="path25" />
				<path
   style="fill:none;stroke:#d0d0d0;stroke-linecap:round;stroke-linejoin:round;stroke-miterlimit:10;stroke-opacity:1"
   d="m 227.688,479.976 c 0,0 -19.023,-54.644 15.697,-134.476 34.72,-79.832 11.168,-120.944 11.168,-120.944"
   id="path27" />
			</g><g
   style="opacity:1;stroke:#d0d0d0;stroke-opacity:1"
   id="g53">
				<path
   style="fill:none;stroke:#d0d0d0;stroke-linecap:round;stroke-linejoin:round;stroke-miterlimit:10;stroke-opacity:1"
   d="M 530.823,-4.687 H 354.428 c 0,0 117.679,45.875 201.949,145.603"
   id="path31" />
				<path
   style="fill:none;stroke:#d0d0d0;stroke-linecap:round;stroke-linejoin:round;stroke-miterlimit:10;stroke-opacity:1"
   d="m 209.324,-4.687 h 145.104 c 0,0 -72.552,39.891 -136.129,115.186"
   id="path33" />
				<path
   style="fill:none;stroke:#d0d0d0;stroke-linecap:round;stroke-linejoin:round;stroke-miterlimit:10;stroke-opacity:1"
   d="m 428.726,167.843 c 0,0 -30.417,-124.411 -74.297,-172.53 0,0 -50.363,77.289 -72.552,167.543"
   id="path35" />
				<path
   style="fill:none;stroke:#d0d0d0;stroke-linecap:round;stroke-linejoin:round;stroke-miterlimit:10;stroke-opacity:1"
   d="m 515.988,-4.687 c -33.908,57.842 20.749,123.886 20.749,123.886 0,0 -80.751,-38.369 -117.069,16.107 0,0 -77.02,-38.367 -130.717,2.071 0,0 -1.495,-55.51 -52.778,-46.929 0,0 21.021,-74.691 -4.909,-95.136"
   id="path37" />
				<path
   style="fill:none;stroke:#d0d0d0;stroke-linecap:round;stroke-linejoin:round;stroke-miterlimit:10;stroke-opacity:1"
   d="m 459.018,-4.687 c 0,0 -13.288,28.453 3.267,60.476 0,0 -44.915,-2.798 -58.684,31.628 0,0 -52.525,-32.514 -94.854,-3.906 0,0 -6.861,-36.09 -33.57,-30.605 0,0 23.718,-33.035 0,-57.593"
   id="path39" />
				<path
   style="fill:none;stroke:#d0d0d0;stroke-linecap:round;stroke-linejoin:round;stroke-miterlimit:10;stroke-opacity:1"
   d="m 422.991,-4.687 c -10.222,16.705 4.134,37.409 4.134,37.409 0,0 -29.215,-2.236 -39.363,16.578 0,0 -25.656,-24.716 -61.408,-3.823 0,0 6.602,-22.791 -17.317,-19.935 0,0 14.476,-18.51 -4.223,-30.228"
   id="path41" />
				<path
   style="fill:none;stroke:#d0d0d0;stroke-linecap:round;stroke-linejoin:round;stroke-miterlimit:10;stroke-opacity:1"
   d="m 395.064,-4.001 c -5.987,8.601 0,18.538 0,18.538 0,0 -16.379,-3.571 -20.435,9.327 0,0 -15.036,-10.927 -35.372,-2.85 0,0 -0.788,-10.296 -11.445,-8.898 0,0 4.177,-12.065 -4.673,-16.803"
   id="path43" />
				<path
   style="fill:none;stroke:#d0d0d0;stroke-linecap:round;stroke-linejoin:round;stroke-miterlimit:10;stroke-opacity:1"
   d="m 374.312,-4.687 c -4.394,3.709 -0.527,8.562 -0.527,8.562 0,0 -6.492,-0.924 -8.966,4.529 0,0 -12.208,-3.583 -18.373,0 0,0 0.286,-5.913 -6.306,-4.437 0,0 2.384,-6.627 -3.693,-8.653"
   id="path45" />
				<path
   style="fill:none;stroke:#d0d0d0;stroke-linecap:round;stroke-linejoin:round;stroke-miterlimit:10;stroke-opacity:1"
   d="m 536.737,119.199 c 0,0 -34.711,-37.621 -44.061,-80.753"
   id="path47" />
				<path
   style="fill:none;stroke:#d0d0d0;stroke-linecap:round;stroke-linejoin:round;stroke-miterlimit:10;stroke-opacity:1"
   d="m 419.668,135.306 c 0,0 -9.267,-5.983 -13.63,-22.314 -4.363,-16.331 -15.707,-16.954 -15.707,-16.954"
   id="path49" />
				<path
   style="fill:none;stroke:#d0d0d0;stroke-linecap:round;stroke-linejoin:round;stroke-miterlimit:10;stroke-opacity:1"
   d="m 236.173,90.449 c 0,0 18.528,-20.954 16.284,-68.142"
   id="path51" />
			</g><g
   style="opacity:1;stroke:#d0d0d0;stroke-opacity:1"
   id="g83">
				<polyline
   style="fill:none;stroke:#d0d0d0;stroke-linecap:round;stroke-linejoin:round;stroke-miterlimit:10;stroke-opacity:1"
   points="      754.882,238.421 754.882,501.107 473.497,501.107     "
   id="polyline55" />
				<path
   style="fill:none;stroke:#d0d0d0;stroke-linecap:round;stroke-linejoin:round;stroke-miterlimit:10;stroke-opacity:1"
   d="m 669.853,205.495 c 14.473,99.864 85.029,295.612 85.029,295.612 0,0 -99.502,-155.947 -257.258,-241.338"
   id="path57" />
				<path
   style="fill:none;stroke:#d0d0d0;stroke-linecap:round;stroke-linejoin:round;stroke-miterlimit:10;stroke-opacity:1"
   d="m 754.882,501.107 c 0,0 -118.937,-79.24 -321.25,-111.081"
   id="path59" />
				<path
   style="fill:none;stroke:#d0d0d0;stroke-linecap:round;stroke-linejoin:round;stroke-miterlimit:10;stroke-opacity:1"
   d="m 484.598,501.107 c 0,0 31.369,-78.819 -26.288,-106.89 0,0 72.798,-28.859 64.378,-120.007 0,0 99.37,22.752 150.766,-47.586 0,0 34.029,48.342 81.428,24.461 0,0 -9.498,-6.965 -5.156,-26.504 4.342,-19.539 -6.242,-26.323 -6.242,-26.323"
   id="path61" />
				<path
   style="fill:none;stroke:#d0d0d0;stroke-linecap:round;stroke-linejoin:round;stroke-miterlimit:10;stroke-opacity:1"
   d="m 754.882,289.438 c 0,0 -28.147,23.764 -65.272,5.731 0,0 -35.979,56.155 -98.062,27.745 0,0 3.996,72.759 -56.18,88.389 0,0 36.296,44.576 0,89.804"
   id="path63" />
				<path
   style="fill:none;stroke:#d0d0d0;stroke-linecap:round;stroke-linejoin:round;stroke-miterlimit:10;stroke-opacity:1"
   d="m 754.882,339.913 c 0,0 -21.161,21.372 -51.015,5.53 0,0 -14.905,38.285 -58.743,25.061 0,0 12.509,53.281 -44.972,60.191 0,0 33.208,39.475 -5.895,70.411"
   id="path65" />
				<path
   style="fill:none;stroke:#d0d0d0;stroke-linecap:round;stroke-linejoin:round;stroke-miterlimit:10;stroke-opacity:1"
   d="m 754.882,387.855 c 0,0 -12.639,23.149 -36.17,5.785 0,0 -10.673,26.639 -34.832,17.121 0,0 1.374,42.251 -35.454,37.714 0,0 24.321,26.218 2.249,52.632"
   id="path67" />
				<path
   style="fill:none;stroke:#d0d0d0;stroke-linecap:round;stroke-linejoin:round;stroke-miterlimit:10;stroke-opacity:1"
   d="m 754.882,427.656 c 0,0 -7.376,11.26 -24.131,3.097 0,0 -6.621,14.991 -22.543,8.118 0,0 2.226,24.908 -21.502,26.023 0,0 13.54,19.569 -3.466,36.212"
   id="path69" />
				<path
   style="fill:none;stroke:#d0d0d0;stroke-linecap:round;stroke-linejoin:round;stroke-miterlimit:10;stroke-opacity:1"
   d="m 754.882,454.069 c 0,0 -6.244,6.513 -16.329,0 0,0 -3.982,12.66 -12.009,7.687 0,0 3.067,17.165 -15.053,15.051 0,0 12.816,12.721 -2.381,24.299"
   id="path71" />
				<path
   style="fill:none;stroke:#d0d0d0;stroke-linecap:round;stroke-linejoin:round;stroke-miterlimit:10;stroke-opacity:1"
   d="m 754.882,470.352 c 0,0 -2.774,6.228 -9.98,2.3 0,0 -0.769,6.754 -7.154,3.946 0,0 0.387,9.685 -9.331,9.047 0,0 9.278,10.578 -1.034,15.463"
   id="path73" />
				<path
   style="fill:none;stroke:#d0d0d0;stroke-linecap:round;stroke-linejoin:round;stroke-miterlimit:10;stroke-opacity:1"
   d="m 640.816,366.342 c 0,0 7.606,55.527 -68.607,55.39"
   id="path75" />
				<path
   style="fill:none;stroke:#d0d0d0;stroke-linecap:round;stroke-linejoin:round;stroke-miterlimit:10;stroke-opacity:1"
   d="m 568.159,420.51 c 0,0 55.267,-27.284 34.338,-88.585"
   id="path77" />
				<path
   style="fill:none;stroke:#d0d0d0;stroke-linecap:round;stroke-linejoin:round;stroke-miterlimit:10;stroke-opacity:1"
   d="m 532.359,501.107 c 0,0 14.111,-29.851 4.523,-55.54"
   id="path79" />
				<path
   style="fill:none;stroke:#d0d0d0;stroke-linecap:round;stroke-linejoin:round;stroke-miterlimit:10;stroke-opacity:1"
   d="m 482.789,501.107 c 0,0 4.251,-12.392 -7.282,-27.77 -11.533,-15.378 -7.734,-20.805 -7.734,-21.891"
   id="path81" />
			</g><g
   style="opacity:1;stroke:#d0d0d0;stroke-opacity:1"
   id="g99">
				<polyline
   style="fill:none;stroke:#d0d0d0;stroke-linecap:round;stroke-linejoin:round;stroke-miterlimit:10;stroke-opacity:1"
   points="      751.736,295.097 687.379,80.504 751.736,122.338     "
   id="polyline85" />
				<polyline
   style="fill:none;stroke:#d0d0d0;stroke-linecap:round;stroke-linejoin:round;stroke-miterlimit:10;stroke-opacity:1"
   points="      751.736,65.463 687.379,80.504 739.554,-4.535     "
   id="polyline87" />
				<polyline
   style="fill:none;stroke:#d0d0d0;stroke-linecap:round;stroke-linejoin:round;stroke-miterlimit:10;stroke-opacity:1"
   points="      643.665,-4.535 687.379,80.504 549.549,-4.535     "
   id="polyline89" />
				<path
   style="fill:none;stroke:#d0d0d0;stroke-linecap:round;stroke-linejoin:round;stroke-miterlimit:10;stroke-opacity:1"
   d="m 575.704,11.602 c 0,0 52.494,34.072 70.98,-10.265 0,0 41.353,32.702 85.267,6.521 0,0 -12.011,35.801 14.894,58.748 0,0 -15.624,33.861 0,52.552 0,0 -30.817,56.948 -9.359,128.421"
   id="path91" />
				<path
   style="fill:none;stroke:#d0d0d0;stroke-linecap:round;stroke-linejoin:round;stroke-miterlimit:10;stroke-opacity:1"
   d="m 640.704,51.707 c 16.827,0.125 23.464,-16.356 23.464,-16.356 19.093,14.778 48.053,4.664 48.053,4.664 -4.242,21.145 16.633,30.796 16.633,30.796 -11.639,12.868 -3.104,34.636 -3.104,34.636 -21.089,19.537 -15.713,50.612 -15.713,50.612 0,0 -27.169,-63.231 -69.333,-104.352 z"
   id="path93" />
				<path
   style="fill:none;stroke:#d0d0d0;stroke-linecap:round;stroke-linejoin:round;stroke-miterlimit:10;stroke-opacity:1"
   d="m 694.279,103.511 c 0,0 -12.435,-26.422 -33.005,-39.113 0,0 11.761,2.184 13.586,-8.247 0,0 14.079,12.198 25.873,2.588 0,0 -4.349,13.478 8.775,16.593 0,0 -8.702,12.068 -0.374,19.313 0,0.001 -14.516,-1.905 -14.855,8.866"
   id="path95" />
				<path
   style="fill:none;stroke:#d0d0d0;stroke-linecap:round;stroke-linejoin:round;stroke-miterlimit:10;stroke-opacity:1"
   d="m 701.305,126.939 c 0,0 -4.417,-18.642 15.859,-27.074 0,0 -6.556,-15.835 2.394,-26.881 0,0 -16.749,-7.4 -12.713,-24.206 0,0 -14.351,9.959 -36.357,-1.132 0,0 -5.96,16.527 -15.062,13.144 0,0 30.777,27.47 43.499,58.214"
   id="path97" />
			</g><g
   clip-path="url(#SVGID_00000056408385051476188320000015939676800387873928_)"
   id="g121"
   style="stroke:#000000;stroke-opacity:1">
			<path
   style="fill:none;stroke:#000000;stroke-linecap:round;stroke-linejoin:round;stroke-miterlimit:10;stroke-opacity:1"
   d="m 630.152,519.914 c 0,0 -1.011,-68.492 29.245,-111.673 0,0 -76.045,3.974 -127.38,51.841 0,0 -29.036,26.931 -37.396,39.436"
   id="path103" />
			<path
   style="fill:none;stroke:#000000;stroke-linecap:round;stroke-linejoin:round;stroke-miterlimit:10;stroke-opacity:1"
   d="m 580.09,296.892 c 53.437,40.753 79.307,111.349 79.307,111.349 0,0 49.532,-48.751 45.529,-102.844"
   id="path105" />
			<path
   style="fill:none;stroke:#000000;stroke-linecap:round;stroke-linejoin:round;stroke-miterlimit:10;stroke-opacity:1"
   d="m 659.397,408.241 c 0,0 82.026,73.684 104.037,110.815"
   id="path107" />
			<path
   style="fill:none;stroke:#000000;stroke-linecap:round;stroke-linejoin:round;stroke-miterlimit:10;stroke-opacity:1"
   d="m 694.381,357.26 c -19.518,10.618 -59.771,1.962 -59.771,1.962 -5.29,46.185 -41.1,63.936 -41.1,63.936 31.21,0.366 43.354,39.323 43.354,39.323 25.108,-25.692 68.445,-10.621 68.445,-10.621 0,0 -26.688,-44.191 -10.928,-94.6 z"
   id="path109" />
			<path
   style="fill:none;stroke:#000000;stroke-linecap:round;stroke-linejoin:round;stroke-miterlimit:10;stroke-opacity:1"
   d="m 685.437,432.487 c 0,0 -27.034,-9.322 -41.279,5.041 0,0 -2.996,-21.105 -21.988,-23.184 0,0 28.118,-6.718 22.74,-37.275 0,0 20.501,10.281 36.085,4.166 10e-4,0 -14.645,33.265 4.442,51.252 z"
   id="path111" />
			<path
   style="fill:none;stroke:#000000;stroke-linecap:round;stroke-linejoin:round;stroke-miterlimit:10;stroke-opacity:1"
   d="m 670.489,418.41 c 0,0 -9.381,-4.376 -17.885,0.774 0,0 -0.854,-9.719 -8.409,-9.204 0,0 10.247,-4.572 8.831,-16.674 0,0 11.271,7.294 17.774,1.93 0,0 -4.641,13.319 -0.311,23.174 z"
   id="path113" />
			<path
   style="fill:none;stroke:#000000;stroke-linecap:round;stroke-linejoin:round;stroke-miterlimit:10;stroke-opacity:1"
   d="m 662.93,411.448 c 0,0 -3.187,-0.906 -6.003,0.47 0,0 0.464,-2.842 -3.76,-3.122 0,0 4.748,-2.472 3.673,-6.907 0,0 5.509,2.671 8.059,0.413 0,0 -3.415,5.225 -1.969,9.146 z"
   id="path115" />
			<path
   style="fill:none;stroke:#000000;stroke-linecap:round;stroke-linejoin:round;stroke-miterlimit:10;stroke-opacity:1"
   d="m 611.021,326.638 c 0,0 9.069,71.617 -51.103,112.598 44.917,-0.182 71.359,58.291 71.359,58.291 32.176,-42.689 108.37,-9.464 108.37,-9.464 0,0 -45.934,-92.403 -35.773,-161.184 10e-4,-0.001 -40.19,28.617 -92.853,-0.241"
   id="path117" />
			<path
   style="fill:none;stroke:#000000;stroke-linecap:round;stroke-linejoin:round;stroke-miterlimit:10;stroke-opacity:1"
   d="m 749.025,499.105 c 0,0 -17.889,-33.23 0.479,-82.488 18.368,-49.258 -1.669,-74.154 -1.669,-74.154"
   id="path119" />
		</g><g
   clip-path="url(#SVGID_00000056408385051476188320000015939676800387873928_)"
   id="g145"
   style="stroke:#000000;stroke-opacity:1">
			<path
   style="fill:none;stroke:#000000;stroke-linecap:round;stroke-linejoin:round;stroke-miterlimit:10;stroke-opacity:1"
   d="m 216.869,501.601 h 155.479 c 0,0 -103.726,-40.436 -178.004,-128.339"
   id="path123" />
			<path
   style="fill:none;stroke:#000000;stroke-linecap:round;stroke-linejoin:round;stroke-miterlimit:10;stroke-opacity:1"
   d="m 500.248,501.601 h -127.9 c 0,0 63.95,-35.161 119.988,-101.529"
   id="path125" />
			<path
   style="fill:none;stroke:#000000;stroke-linecap:round;stroke-linejoin:round;stroke-miterlimit:10;stroke-opacity:1"
   d="m 306.86,349.528 c 0,0 26.811,109.66 65.488,152.073 0,0 44.391,-68.125 63.95,-147.678"
   id="path127" />
			<path
   style="fill:none;stroke:#000000;stroke-linecap:round;stroke-linejoin:round;stroke-miterlimit:10;stroke-opacity:1"
   d="m 229.944,501.601 c 29.887,-50.984 -18.289,-109.197 -18.289,-109.197 0,0 71.177,33.82 103.189,-14.198 0,0 67.888,33.817 115.218,-1.826 0,0 1.318,48.928 46.52,41.364 0,0 -18.528,65.835 4.327,83.856"
   id="path129" />
			<path
   style="fill:none;stroke:#000000;stroke-linecap:round;stroke-linejoin:round;stroke-miterlimit:10;stroke-opacity:1"
   d="m 280.159,501.601 c 0,0 11.712,-25.08 -2.879,-53.305 0,0 39.59,2.466 51.726,-27.878 0,0 46.297,28.659 83.607,3.443 0,0 6.047,31.811 29.59,26.977 0,0 -20.906,29.118 0,50.764"
   id="path131" />
			<path
   style="fill:none;stroke:#000000;stroke-linecap:round;stroke-linejoin:round;stroke-miterlimit:10;stroke-opacity:1"
   d="m 311.914,501.601 c 9.01,-14.724 -3.643,-32.974 -3.643,-32.974 0,0 25.751,1.971 34.695,-14.612 0,0 22.614,21.786 54.127,3.37 0,0 -5.819,20.089 15.264,17.572 0,0 -12.759,16.315 3.723,26.644"
   id="path133" />
			<path
   style="fill:none;stroke:#000000;stroke-linecap:round;stroke-linejoin:round;stroke-miterlimit:10;stroke-opacity:1"
   d="m 336.53,500.996 c 5.277,-7.582 0,-16.34 0,-16.34 0,0 14.436,3.148 18.012,-8.221 0,0 13.253,9.632 31.178,2.512 0,0 0.695,9.075 10.088,7.843 0,0 -3.682,10.635 4.119,14.81"
   id="path135" />
			<path
   style="fill:none;stroke:#000000;stroke-linecap:round;stroke-linejoin:round;stroke-miterlimit:10;stroke-opacity:1"
   d="m 354.822,501.601 c 3.873,-3.269 0.465,-7.546 0.465,-7.546 0,0 5.723,0.815 7.903,-3.992 0,0 10.76,3.158 16.195,0 0,0 -0.252,5.212 5.558,3.911 0,0 -2.101,5.842 3.255,7.627"
   id="path137" />
			<path
   style="fill:none;stroke:#000000;stroke-linecap:round;stroke-linejoin:round;stroke-miterlimit:10;stroke-opacity:1"
   d="m 211.656,392.404 c 0,0 30.595,33.16 38.836,71.178"
   id="path139" />
			<path
   style="fill:none;stroke:#000000;stroke-linecap:round;stroke-linejoin:round;stroke-miterlimit:10;stroke-opacity:1"
   d="m 314.844,378.207 c 0,0 8.168,5.274 12.014,19.668 3.846,14.394 13.845,14.944 13.845,14.944"
   id="path141" />
			<path
   style="fill:none;stroke:#000000;stroke-linecap:round;stroke-linejoin:round;stroke-miterlimit:10;stroke-opacity:1"
   d="m 476.582,417.745 c 0,0 -16.331,18.469 -14.353,60.063"
   id="path143" />
		</g><g
   clip-path="url(#SVGID_00000056408385051476188320000015939676800387873928_)"
   id="g175"
   style="stroke:#000000;stroke-opacity:1">
			<polyline
   style="fill:none;stroke:#000000;stroke-linecap:round;stroke-linejoin:round;stroke-miterlimit:10;stroke-opacity:1"
   points="     -3.652,258.77 -3.652,-3.915 277.732,-3.915    "
   id="polyline147" />
			<path
   style="fill:none;stroke:#000000;stroke-linecap:round;stroke-linejoin:round;stroke-miterlimit:10;stroke-opacity:1"
   d="M 81.377,291.697 C 66.904,191.833 -3.652,-3.915 -3.652,-3.915 c 0,0 99.502,155.947 257.258,241.338"
   id="path149" />
			<path
   style="fill:none;stroke:#000000;stroke-linecap:round;stroke-linejoin:round;stroke-miterlimit:10;stroke-opacity:1"
   d="m -3.652,-3.915 c 0,0 118.937,79.24 321.25,111.081"
   id="path151" />
			<path
   style="fill:none;stroke:#000000;stroke-linecap:round;stroke-linejoin:round;stroke-miterlimit:10;stroke-opacity:1"
   d="m 266.632,-3.915 c 0,0 -31.368,78.819 26.288,106.89 0,0 -72.799,28.859 -64.378,120.007 0,0 -99.369,-22.752 -150.766,47.586 0,0 -34.029,-48.342 -81.428,-24.461 0,0 9.498,6.965 5.156,26.504 -4.342,19.539 6.241,26.323 6.241,26.323"
   id="path153" />
			<path
   style="fill:none;stroke:#000000;stroke-linecap:round;stroke-linejoin:round;stroke-miterlimit:10;stroke-opacity:1"
   d="m -3.652,207.753 c 0,0 28.147,-23.763 65.272,-5.731 0,0 35.979,-56.155 98.062,-27.745 0,0 -3.996,-72.759 56.18,-88.389 0,0 -36.296,-44.576 0,-89.804"
   id="path155" />
			<path
   style="fill:none;stroke:#000000;stroke-linecap:round;stroke-linejoin:round;stroke-miterlimit:10;stroke-opacity:1"
   d="m -3.652,157.278 c 0,0 21.161,-21.372 51.014,-5.53 0,0 14.905,-38.285 58.743,-25.061 0,0 -12.509,-53.281 44.972,-60.191 0,0 -33.208,-39.475 5.895,-70.411"
   id="path157" />
			<path
   style="fill:none;stroke:#000000;stroke-linecap:round;stroke-linejoin:round;stroke-miterlimit:10;stroke-opacity:1"
   d="m -3.652,109.336 c 0,0 12.639,-23.149 36.17,-5.785 0,0 10.673,-26.639 34.832,-17.121 0,0 -1.374,-42.251 35.453,-37.714 0,0 -24.321,-26.218 -2.249,-52.632"
   id="path159" />
			<path
   style="fill:none;stroke:#000000;stroke-linecap:round;stroke-linejoin:round;stroke-miterlimit:10;stroke-opacity:1"
   d="m -3.652,69.535 c 0,0 7.376,-11.26 24.131,-3.097 0,0 6.621,-14.991 22.543,-8.118 0,0 -2.226,-24.908 21.502,-26.023 0,0 -13.54,-19.569 3.466,-36.213"
   id="path161" />
			<path
   style="fill:none;stroke:#000000;stroke-linecap:round;stroke-linejoin:round;stroke-miterlimit:10;stroke-opacity:1"
   d="m -3.652,43.122 c 0,0 6.244,-6.513 16.328,0 0,0 3.982,-12.66 12.009,-7.687 0,0 -3.067,-17.165 15.053,-15.051 0,0 -12.816,-12.721 2.381,-24.3"
   id="path163" />
			<path
   style="fill:none;stroke:#000000;stroke-linecap:round;stroke-linejoin:round;stroke-miterlimit:10;stroke-opacity:1"
   d="m -3.652,26.84 c 0,0 2.774,-6.228 9.98,-2.3 0,0 0.769,-6.754 7.154,-3.946 0,0 -0.386,-9.685 9.331,-9.047 0,0 -9.278,-10.578 1.034,-15.463"
   id="path165" />
			<path
   style="fill:none;stroke:#000000;stroke-linecap:round;stroke-linejoin:round;stroke-miterlimit:10;stroke-opacity:1"
   d="m 110.414,130.849 c 0,0 -7.606,-55.527 68.607,-55.39"
   id="path167" />
			<path
   style="fill:none;stroke:#000000;stroke-linecap:round;stroke-linejoin:round;stroke-miterlimit:10;stroke-opacity:1"
   d="m 183.071,76.681 c 0,0 -55.267,27.284 -34.338,88.585"
   id="path169" />
			<path
   style="fill:none;stroke:#000000;stroke-linecap:round;stroke-linejoin:round;stroke-miterlimit:10;stroke-opacity:1"
   d="m 218.871,-3.915 c 0,0 -14.111,29.851 -4.523,55.54"
   id="path171" />
			<path
   style="fill:none;stroke:#000000;stroke-linecap:round;stroke-linejoin:round;stroke-miterlimit:10;stroke-opacity:1"
   d="m 268.441,-3.915 c 0,0 -4.251,12.393 7.282,27.77 11.533,15.377 7.734,20.805 7.734,21.891"
   id="path173" />
		</g><g
   clip-path="url(#SVGID_00000056408385051476188320000015939676800387873928_)"
   id="g191"
   style="stroke:#000000;stroke-opacity:1">
			<polyline
   style="fill:none;stroke:#000000;stroke-linecap:round;stroke-linejoin:round;stroke-miterlimit:10;stroke-opacity:1"
   points="     -0.507,200.856 63.85,415.449 -0.507,373.615    "
   id="polyline177" />
			<polyline
   style="fill:none;stroke:#000000;stroke-linecap:round;stroke-linejoin:round;stroke-miterlimit:10;stroke-opacity:1"
   points="     -0.507,430.49 63.85,415.449 11.675,500.488    "
   id="polyline179" />
			<polyline
   style="fill:none;stroke:#000000;stroke-linecap:round;stroke-linejoin:round;stroke-miterlimit:10;stroke-opacity:1"
   points="     107.564,500.488 63.85,415.449 201.68,500.488    "
   id="polyline181" />
			<path
   style="fill:none;stroke:#000000;stroke-linecap:round;stroke-linejoin:round;stroke-miterlimit:10;stroke-opacity:1"
   d="m 175.526,484.351 c 0,0 -52.494,-34.072 -70.98,10.265 0,0 -41.353,-32.702 -85.267,-6.521 0,0 12.011,-35.801 -14.894,-58.748 0,0 15.624,-33.861 0,-52.552 0,0 30.817,-56.948 9.359,-128.421"
   id="path183" />
			<path
   style="fill:none;stroke:#000000;stroke-linecap:round;stroke-linejoin:round;stroke-miterlimit:10;stroke-opacity:1"
   d="M 110.525,444.246 C 93.698,444.121 87.061,460.601 87.061,460.601 67.968,445.824 39.008,455.937 39.008,455.937 43.25,434.792 22.374,425.141 22.374,425.141 c 11.639,-12.868 3.104,-34.636 3.104,-34.636 21.089,-19.537 15.712,-50.612 15.712,-50.612 0,0 27.172,63.232 69.335,104.353 z"
   id="path185" />
			<path
   style="fill:none;stroke:#000000;stroke-linecap:round;stroke-linejoin:round;stroke-miterlimit:10;stroke-opacity:1"
   d="m 56.95,392.442 c 0,0 12.435,26.422 33.005,39.113 0,0 -11.761,-2.184 -13.586,8.247 0,0 -14.079,-12.198 -25.873,-2.588 0,0 4.349,-13.478 -8.775,-16.594 0,0 8.702,-12.068 0.374,-19.313 10e-4,0 14.517,1.906 14.855,-8.865"
   id="path187" />
			<path
   style="fill:none;stroke:#000000;stroke-linecap:round;stroke-linejoin:round;stroke-miterlimit:10;stroke-opacity:1"
   d="m 49.924,369.014 c 0,0 4.417,18.642 -15.858,27.074 0,0 6.556,15.835 -2.394,26.881 0,0 16.749,7.4 12.713,24.206 0,0 14.351,-9.959 36.357,1.132 0,0 5.96,-16.527 15.062,-13.144 0,0 -30.778,-27.47 -43.499,-58.214"
   id="path189" />
		</g><g
   clip-path="url(#SVGID_00000056408385051476188320000015939676800387873928_)"
   id="g231"
   style="stroke:#000000;stroke-opacity:1">
			<polyline
   style="fill:none;stroke:#000000;stroke-linecap:round;stroke-linejoin:round;stroke-miterlimit:10;stroke-opacity:1"
   points="     752.687,225.448 744.771,4.173 483.946,-30.321    "
   id="polyline193" />
			<polyline
   style="fill:none;stroke:#000000;stroke-linecap:round;stroke-linejoin:round;stroke-miterlimit:10;stroke-opacity:1"
   points="     533.606,208.601 744.771,4.173 476,79.226    "
   id="polyline195" />
			<polyline
   style="fill:none;stroke:#000000;stroke-linecap:round;stroke-linejoin:round;stroke-miterlimit:10;stroke-opacity:1"
   points="     648.095,283.342 744.771,4.173 772.047,196.348    "
   id="polyline197" />
			<path
   style="fill:none;stroke:#000000;stroke-linecap:round;stroke-linejoin:round;stroke-miterlimit:10;stroke-opacity:1"
   d="m 529.138,-24.344 c 15.629,47.581 -16.245,93.267 -16.245,93.267 61.267,25.256 54.128,107.328 54.128,107.328 93.177,-6.39 95.379,65.785 95.379,65.785 0,0 19.294,-48.216 89.833,-29.292 0,0 2.507,-20.7 18.838,-23.276"
   id="path199" />
			<path
   style="fill:none;stroke:#000000;stroke-linecap:round;stroke-linejoin:round;stroke-miterlimit:10;stroke-opacity:1"
   d="m 574.911,-18.291 c 27.34,31.311 -2.74,70.661 -2.74,70.661 53.291,12.212 43.532,76.753 43.532,76.753 58.322,-2.53 67.857,51.809 67.857,51.809 0,0 21.324,-24.207 67.336,-5.558 0,0 5.198,-10.705 17.052,-7.906"
   id="path201" />
			<path
   style="fill:none;stroke:#000000;stroke-linecap:round;stroke-linejoin:round;stroke-miterlimit:10;stroke-opacity:1"
   d="m 624.438,-11.741 c 18.802,30.036 -5.444,51.037 -5.444,51.037 0,0 31.737,9.217 36.298,51.502 0,0 36.608,-3.962 50.785,25.114 0,0 17.339,-10.445 42.593,-2.766 0,0 3.26,-8.243 11.028,-3.811"
   id="path203" />
			<path
   style="fill:none;stroke:#000000;stroke-linecap:round;stroke-linejoin:round;stroke-miterlimit:10;stroke-opacity:1"
   d="m 662.934,-6.65 c 18.93,14.183 -0.393,33.785 -0.393,33.785 0,0 20.329,6.765 22.537,34.827 0,0 27.118,-0.111 31.966,22.28 0,0 13.973,-9.528 30.537,-1.546 0,0 2.55,-4.182 7.978,-2.523"
   id="path205" />
			<path
   style="fill:none;stroke:#000000;stroke-linecap:round;stroke-linejoin:round;stroke-miterlimit:10;stroke-opacity:1"
   d="m 696.396,-2.225 c 9.128,8.73 -0.876,20.151 -0.876,20.151 0,0 17.303,2.139 15.833,18.599 0,0 12.825,-5.587 19.534,7.742 0,0 5.891,-7.751 15.148,-4.794 0,0 0.966,-2.97 3.306,-3.113"
   id="path207" />
			<path
   style="fill:none;stroke:#000000;stroke-linecap:round;stroke-linejoin:round;stroke-miterlimit:10;stroke-opacity:1"
   d="m 718.016,0.634 c 4.932,4.298 -0.128,11.046 -0.128,11.046 0,0 8.861,-0.712 10.659,8.201 0,0 8.667,-2.48 9.271,4.375 0,0 4.177,-4.821 7.592,-2.259 0,0 0.139,-1.131 1.718,-1.226"
   id="path209" />
			<path
   style="fill:none;stroke:#000000;stroke-linecap:round;stroke-linejoin:round;stroke-miterlimit:10;stroke-opacity:1"
   d="m 730.246,2.252 c 2.461,2.805 -0.07,5.997 -0.07,5.997 0,0 4.616,-0.22 5.594,4.638 0,0 3.499,-1.5 5.54,1.28 0,0 0.534,-1.936 3.741,-2.171"
   id="path211" />
			<path
   style="fill:none;stroke:#000000;stroke-linecap:round;stroke-linejoin:round;stroke-miterlimit:10;stroke-opacity:1"
   d="m 679.124,-4.509 c 8.512,8.865 -0.315,27.101 -0.315,27.101 16.675,3.808 19.831,26.24 19.831,26.24 19.459,-0.34 25.119,16.017 25.119,16.017 0,0 10.174,-10.977 23.076,-2.967 0,0 1.048,-4.318 5.51,-4.343"
   id="path213" />
			<path
   style="fill:none;stroke:#000000;stroke-linecap:round;stroke-linejoin:round;stroke-miterlimit:10;stroke-opacity:1"
   d="m 749.845,145.999 c -26.473,-14.894 -53.97,-0.627 -53.97,-0.627 0,0 -15.236,-37.073 -56.686,-38.985 0,0 0.144,-46.271 -39.123,-61.806 0,0 17.321,-37.543 0.691,-59.454"
   id="path215" />
			<path
   style="fill:none;stroke:#000000;stroke-linecap:round;stroke-linejoin:round;stroke-miterlimit:10;stroke-opacity:1"
   d="m 750.138,145.01 c 0,0 1.484,-10.314 13.561,-7.477"
   id="path217" />
			<path
   style="fill:none;stroke:#000000;stroke-linecap:round;stroke-linejoin:round;stroke-miterlimit:10;stroke-opacity:1"
   d="m 567.021,176.252 c 0,0 16.342,-9.131 40.667,-3.451 24.325,5.681 35.837,-6.003 35.837,-6.003"
   id="path219" />
			<path
   style="fill:none;stroke:#000000;stroke-linecap:round;stroke-linejoin:round;stroke-miterlimit:10;stroke-opacity:1"
   d="m 512.893,68.923 c 0,0 8.041,-10.634 16.223,-11.804 8.181,-1.171 10.091,7.577 18.807,7.815"
   id="path221" />
			<path
   style="fill:none;stroke:#000000;stroke-linecap:round;stroke-linejoin:round;stroke-miterlimit:10;stroke-opacity:1"
   d="m 572.171,52.37 c 0,0 21.317,-51.193 -27.83,-74.704"
   id="path223" />
			<path
   style="fill:none;stroke:#000000;stroke-linecap:round;stroke-linejoin:round;stroke-miterlimit:10;stroke-opacity:1"
   d="m 578.22,165.41 c 0,0 50.51,-74.652 -6.049,-113.039"
   id="path225" />
			<path
   style="fill:none;stroke:#000000;stroke-linecap:round;stroke-linejoin:round;stroke-miterlimit:10;stroke-opacity:1"
   d="m 639.188,106.387 c 0,0 8.261,-5.107 13.617,-2.464 5.356,2.643 5.051,8.878 12.964,10.739 6.262,1.472 8.165,-3.496 14.833,-3.769"
   id="path227" />
			<path
   style="fill:none;stroke:#000000;stroke-linecap:round;stroke-linejoin:round;stroke-miterlimit:10;stroke-opacity:1"
   d="m 635.235,34.76 c 0,0 5.472,-4.762 10.902,-4.19 5.43,0.572 5.631,1.593 11.346,1.359"
   id="path229" />
		</g><g
   clip-path="url(#SVGID_00000056408385051476188320000015939676800387873928_)"
   id="g237"
   style="stroke:#000000;stroke-opacity:1;fill:#000000;fill-opacity:1">
			<path
   style="fill:#000000;stroke:#000000;stroke-opacity:1;fill-opacity:1"
   d="m 166.058,329.158 c -0.008,-0.007 -0.017,-0.014 -0.027,-0.019 l -9.027,-4.793 c 4.381,0.359 9.698,-1.383 9.754,-1.401 0.034,-0.012 0.061,-0.034 0.074,-0.063 l 3.214,-7.249 c 0.014,-0.031 0.009,-0.066 -0.012,-0.094 -1.464,-1.905 -2.045,-5.226 -2.05,-5.259 -0.01,-0.056 -0.073,-0.097 -0.141,-0.092 -0.07,0.005 -0.122,0.053 -0.12,0.11 0.082,2.421 0.936,4.87 1.05,5.187 l -2.83,6.455 c -2.799,1.171 -7.451,1.276 -8.901,1.279 l 6.804,-3.51 c 0.035,-0.018 0.058,-0.049 0.061,-0.083 l 0.71,-8.034 c 0.003,-0.028 -0.008,-0.055 -0.03,-0.076 -1.654,-1.621 -3.988,-5.565 -4.011,-5.604 -0.03,-0.05 -0.101,-0.073 -0.165,-0.054 -0.064,0.02 -0.098,0.076 -0.079,0.13 0.932,2.689 2.921,5.498 3.146,5.813 l -0.522,7.108 -5.432,2.837 c 0.461,-0.449 1.051,-1.131 1.595,-2.082 0.647,-1.13 0.733,-2.39 0.236,-3.455 -1.095,-2.346 -4.026,-4.327 -4.903,-4.327 -0.001,0 -0.002,0 -0.003,0 h -0.576 c -10e-4,0 -0.002,0 -0.003,0 -0.878,0 -3.81,1.981 -4.904,4.327 -0.497,1.066 -0.411,2.326 0.236,3.455 0.545,0.951 1.135,1.633 1.595,2.082 l -5.432,-2.837 -0.522,-7.108 c 0.226,-0.314 2.214,-3.123 3.146,-5.813 0.019,-0.054 -0.016,-0.11 -0.079,-0.13 -0.064,-0.019 -0.136,0.004 -0.165,0.054 -0.023,0.04 -2.356,3.983 -4.01,5.604 -0.022,0.021 -0.033,0.049 -0.03,0.076 l 0.71,8.034 c 0.003,0.034 0.026,0.065 0.061,0.083 l 6.804,3.51 c -1.45,-0.003 -6.103,-0.108 -8.901,-1.279 l -2.83,-6.455 c 0.114,-0.318 0.968,-2.767 1.05,-5.187 0.002,-0.057 -0.051,-0.105 -0.12,-0.11 -0.077,-0.004 -0.131,0.035 -0.141,0.092 -0.006,0.033 -0.585,3.353 -2.05,5.259 -0.022,0.028 -0.026,0.063 -0.012,0.094 l 3.214,7.249 c 0.012,0.029 0.039,0.051 0.074,0.063 0.056,0.018 5.376,1.759 9.754,1.401 l -9.027,4.793 c -0.01,0.005 -0.019,0.012 -0.027,0.019 -0.072,0.066 -7.141,6.747 -3.438,15.38 0.023,0.054 0.093,0.083 0.161,0.067 0.067,-0.016 0.106,-0.073 0.09,-0.129 -0.024,-0.081 -2.35,-8.176 4.12,-14.391 0.364,-0.185 6.166,-3.14 8.757,-4.741 l -6.777,8.607 c -0.05,0.068 -4.926,6.93 0.321,17.461 0.027,0.055 0.103,0.08 0.168,0.06 0.066,-0.021 0.1,-0.082 0.076,-0.137 -0.044,-0.098 -4.274,-9.882 1.045,-17.003 3.415,-4.571 5.023,-6.696 5.741,-7.638 -0.046,0.281 -0.026,0.596 0.161,0.875 -0.086,0.162 -0.25,0.62 0.292,1.104 0.037,0.033 0.098,0.044 0.148,0.026 0.051,-0.018 0.083,-0.061 0.079,-0.106 -0.003,-0.033 -0.061,-0.804 0.7,-0.903 0.13,-0.044 0.2,-0.077 0.244,-0.099 0.005,-0.002 0.009,-0.004 0.012,-0.006 0.01,0.004 0.021,0.008 0.036,0.014 0.043,0.017 0.104,0.041 0.196,0.073 0.01,0.003 0.02,0.006 0.03,0.007 0.73,0.092 0.688,0.882 0.686,0.916 -0.003,0.045 0.029,0.087 0.08,0.105 0.052,0.018 0.11,0.007 0.147,-0.026 0.542,-0.483 0.378,-0.942 0.292,-1.104 0.187,-0.279 0.207,-0.594 0.161,-0.874 0.718,0.942 2.325,3.066 5.74,7.637 5.32,7.121 1.088,16.905 1.045,17.003 -0.024,0.055 0.01,0.116 0.076,0.137 0.015,0.005 0.031,0.007 0.047,0.007 0.052,0 0.101,-0.025 0.121,-0.067 5.248,-10.531 0.372,-17.393 0.319,-17.464 l -6.775,-8.604 c 2.592,1.601 8.394,4.556 8.757,4.741 6.466,6.212 4.144,14.309 4.12,14.391 -0.016,0.056 0.023,0.112 0.09,0.129 0.067,0.016 0.138,-0.013 0.161,-0.067 3.705,-8.635 -3.363,-15.315 -3.435,-15.381 z"
   id="path233" />
			
				<line
   style="fill:#000000;stroke:#000000;stroke-width:0.75;stroke-linecap:round;stroke-linejoin:round;stroke-miterlimit:10;stroke-opacity:1;fill-opacity:1"
   x1="154.16"
   y1="319.56"
   x2="154.16"
   y2="0"
   id="line235" />
		</g>
</svg>
